<?xml version="1.0" encoding="UTF-8"?><svg xmlns="http://www.w3.org/2000/svg" xmlns:latexdraw="http://latexdraw.sourceforge.net/namespaces/latexdraw" version="1.1" baseProfile="full">
    <g>
        <g latexdraw:type="bezierCurve" id="id256896006">
            <path d="M 404.0 228.0 C 398.8035 218.126 400.5464 215.9145 411.3615 218.6588 C 422.17659999999995 221.40310000000002 422.8177 220.8846 419.5963 210.0776 C 416.37489999999997 199.27059999999997 418.5468 197.5522 428.6264 202.3376 C 438.70599999999996 207.12300000000002 439.4353 206.7384 438.3663 195.5123 C 437.29730000000006 184.2862 439.7606 183.0206 448.7235 189.6663 C 457.6864 196.312 458.4764 196.0756 459.6001 184.8549 C 460.7238 173.63419999999996 463.3856 172.8692 470.893 181.1237 C 478.40039999999993 189.37820000000002 479.2211 189.2994 482.4951 178.5082 C 485.7691 167.71699999999998 488.5286 167.4817 494.2965 177.0331 C 500.0644 186.5845 500.8849 186.6659 506.1855 176.7124 C 511.48609999999996 166.7589 514.2388000000001 167.062 518.0493 177.549 C 521.8598 188.036 522.6489 188.2747 529.7755 179.5352 C 536.9021 170.7957 539.5442 171.6257 541.2531 182.652 C 542.962 193.67829999999998 541.3168000000001 192.1952 550.0 185.0 C 558.6831999999999 177.8048 563.488 181.0005 563.0307 192.149 C 562.5734 203.2975 563.2129 203.818 573.1244 198.4393 C 583.0359000000001 193.0606 585.1649 194.8319 582.5587 205.6811 C 579.9525000000001 216.53029999999998 580.4792 217.1647 591.2442 213.8059 C 602.0092 210.4471 603.7552 212.5968 599.0986 222.7366 C 594.4420000000001 232.87640000000002 594.8361 233.6006 606.0476 232.3886 C 617.2591 231.1766 618.556 233.6236 612.0253 242.6705 C 605.4946 251.7174 605.7407 252.50419999999997 616.9749 253.48490000000004 C 628.2091000000001 254.4656 629.0079 257.1172 620.8497 264.7292 C 612.6915 272.34119999999996 612.7809 273.16089999999997 623.6129 276.297 C 634.4449 279.43309999999997 634.7155 282.1894 625.2384 288.0787 C 615.7612999999999 293.96799999999996 615.6904 294.7894 625.7107 299.9626 C 635.731 305.1358 635.463 307.8922 625.0253 311.8361 C 614.5876000000001 315.78 614.3591 316.5721 623.1888 323.5867 C 632.0185 330.60130000000004 631.2222 333.2537 620.2186 335.1031 C 609.215 336.9525 608.8375 337.6854 616.1428 346.2762 C 623.4481 354.867 622.1534 357.3151 611.0 357.0 " stroke-width="1.5" stroke="#00af00" fill="none" latexdraw:rotationAngle="0.0"/>
        </g>
        <g latexdraw:type="bezierCurve" id="id301757686">
            <path d="M 420.6241 277.0 C 420.6241 320.9752 384.9752 356.6241 341.0 356.6241 C 297.0248 356.6241 261.3759 320.9752 261.3759 277.0 C 261.3759 233.02480000000003 297.0248 197.3759 341.0 197.3759 C 384.9752 197.3759 420.6241 233.02480000000003 420.6241 277.0 z " stroke-width="1.5" stroke="blue" fill="none" latexdraw:rotationAngle="0.0"/>
        </g>
        <g latexdraw:type="joinedLines" id="id369621933">
            <polyline points="201.0,357.0 701.0,357.0 " stroke-width="1.5" stroke="black" latexdraw:rotationAngle="0.0"/>
        </g>
        <g latexdraw:type="bezierCurve" id="id2104967147">
            <path d="M 420.6241 437.0 C 420.6241 480.9752 384.9752 516.6241 341.0 516.6241 C 297.0248 516.6241 261.3759 480.9752 261.3759 437.0 C 261.3759 393.0248 297.0248 357.3759 341.0 357.3759 C 384.9752 357.3759 420.6241 393.0248 420.6241 437.0 z " stroke-width="1.5" stroke="blue" fill="none" latexdraw:rotationAngle="0.0"/>
        </g>
        <g latexdraw:type="joinedLines" id="id1132274312">
            <polyline points="341.0,197.0 341.0,157.0 " stroke-width="1.5" stroke="#666666" stroke-dasharray="8.819444444444445, 5.291666666666667" latexdraw:rotationAngle="0.0"/>
        </g>
        <g latexdraw:type="joinedLines" id="id768393911">
            <polyline points="341.0,557.0 341.0,517.0 " stroke-width="1.5" stroke="#666666" stroke-dasharray="8.819444444444445, 5.291666666666667" latexdraw:rotationAngle="0.0"/>
        </g>
        <g latexdraw:type="joinedLines" id="id514796880">
            <polyline points="421.0,277.0 461.0,277.0 " stroke-width="1.5" stroke="#666666" stroke-dasharray="8.819444444444445, 5.291666666666667" latexdraw:rotationAngle="0.0"/>
        </g>
        <g latexdraw:type="joinedLines" id="id1029012339">
            <polyline points="511.0,397.0 511.0,357.0 " stroke-width="1.5" stroke="#666666" stroke-dasharray="8.819444444444445, 5.291666666666667" latexdraw:rotationAngle="0.0"/>
        </g>
        <g latexdraw:type="text" id="id1424346496" fill="black" latexdraw:position="bl">
            <text x="325.0" y="590.0">\Large $\langle H\rangle$</text>
        </g>
        <g latexdraw:type="text" id="id503983538" fill="black" latexdraw:position="bl">
            <text x="325.0" y="155.0">\Large $\langle H\rangle$</text>
        </g>
        <g latexdraw:type="text" id="id898046179" fill="black" latexdraw:position="bl">
            <text x="495.0" y="430.0">\Large $\langle H\rangle$</text>
        </g>
        <g latexdraw:type="text" id="id555124270" fill="black" latexdraw:position="bl">
            <text x="465.0" y="290.0">\Large $\langle H\rangle$</text>
        </g>
        <g latexdraw:type="text" id="id2123142201" fill="black" latexdraw:position="bl">
            <text x="595.0" y="195.0">\Large $W$</text>
        </g>
        <g latexdraw:type="text" id="id1384299697" fill="black" latexdraw:position="bl">
            <text x="170.0" y="365.0">\Large $\nu_L$</text>
        </g>
        <g latexdraw:type="text" id="id1149769901" fill="black" latexdraw:position="bl">
            <text x="710.0" y="365.0">\Large $\nu_L$</text>
        </g>
        <g latexdraw:type="text" id="id289771289" fill="black" latexdraw:position="bl">
            <text x="355.0" y="230.0">\Large $u_L$</text>
        </g>
        <g latexdraw:type="text" id="id122485599" fill="black" latexdraw:position="bl">
            <text x="230.0" y="250.0">\Large $u_R$</text>
        </g>
        <g latexdraw:type="text" id="id913495026" fill="black" latexdraw:position="bl">
            <text x="440.0" y="380.0">\Large $e_R$</text>
        </g>
        <g latexdraw:type="text" id="id336377210" fill="black" latexdraw:position="bl">
            <text x="555.0" y="380.0">\Large $e_L$</text>
        </g>
        <g latexdraw:type="text" id="id867615799" fill="black" latexdraw:position="bl">
            <text x="375.0" y="325.0">\Large $d_R$</text>
        </g>
        <g latexdraw:type="text" id="id2112983215" fill="black" latexdraw:position="bl">
            <text x="390.0" y="270.0">\Large $d_L$</text>
        </g>
        <g latexdraw:type="text" id="id1099293045" fill="black" latexdraw:position="bl">
            <text x="215.0" y="525.0">\Large $d_L\,(u_L)$</text>
        </g>
        <g latexdraw:type="text" id="id110911375" fill="black" latexdraw:position="bl">
            <text x="340.0" y="455.0">\Large $d_R\,(u_R)$</text>
        </g>
        <g latexdraw:type="circle" id="id522136568">
            <circle cx="342.5" cy="357.5" r="6.5" latexdraw:borderPos="outer" stroke-width="2.0" stroke="red" fill="red"/>
        </g>
    </g>
    <defs/>
    <metadata>
        <latexdraw:metadata>
            <latexdraw:latexIncludes/>
            <latexdraw:displayXScale>true</latexdraw:displayXScale>
            <latexdraw:displayYScale>true</latexdraw:displayYScale>
            <latexdraw:unit>CM</latexdraw:unit>
            <latexdraw:zoom>1.0</latexdraw:zoom>
            <latexdraw:magneticGridStyle>STANDARD</latexdraw:magneticGridStyle>
            <latexdraw:gridGap>20</latexdraw:gridGap>
            <latexdraw:magneticGrid>true</latexdraw:magneticGrid>
            <latexdraw:version>3.3.8</latexdraw:version>
            <latexdraw:size>
                <latexdraw:width>1877</latexdraw:width>
                <latexdraw:height>1055</latexdraw:height>
            </latexdraw:size>
            <latexdraw:position>
                <latexdraw:x>1921.0</latexdraw:x>
                <latexdraw:y>25.0</latexdraw:y>
            </latexdraw:position>
        </latexdraw:metadata>
    </metadata>
</svg>
